<svg width="800" height="500" viewBox="0 0 800 500" xmlns="http://www.w3.org/2000/svg">
  <!-- Code Editor Background -->
  <rect width="800" height="500" fill="#1e1e1e" rx="8" ry="8"/>
  
  <!-- Editor Header -->
  <rect width="800" height="40" fill="#252526" rx="8" ry="8"/>
  <circle cx="25" cy="20" r="6" fill="#ff5f57"/>
  <circle cx="45" cy="20" r="6" fill="#febc2e"/>
  <circle cx="65" cy="20" r="6" fill="#28c840"/>
  
  <!-- Tab Bar -->
  <rect y="40" width="800" height="30" fill="#2d2d2d"/>
  <text x="20" y="60" font-family="Monaco, monospace" font-size="12" fill="#cccccc">TodoComponent.tsx</text>
  <text x="160" y="60" font-family="Monaco, monospace" font-size="12" fill="#666666">CHAT</text>
  <text x="220" y="60" font-family="Monaco, monospace" font-size="12" fill="#666666">COMPOSER</text>
  
  <!-- Code Content -->
  <g transform="translate(60, 100)" font-family="Monaco, monospace" font-size="14">
    <!-- Line Numbers -->
    <g fill="#666666">
      <text x="-40" y="0">1</text>
      <text x="-40" y="25">2</text>
      <text x="-40" y="50">3</text>
      <text x="-40" y="75">4</text>
      <text x="-40" y="100">5</text>
      <text x="-40" y="125">6</text>
      <text x="-40" y="150">7</text>
      <text x="-40" y="175">8</text>
    </g>
    
    <!-- Code -->
    <g fill="#d4d4d4">
      <text y="0"><tspan fill="#c586c0">import</tspan> React, { useState, useEffect } <tspan fill="#c586c0">from</tspan> <tspan fill="#ce9178">'react'</tspan>;</text>
      <text y="25"><tspan fill="#c586c0">import</tspan> { TodoItem } <tspan fill="#c586c0">from</tspan> <tspan fill="#ce9178">'./types'</tspan>;</text>
      <text y="50"></text>
      <text y="75"><tspan fill="#c586c0">const</tspan> <tspan fill="#4ec9b0">TodoComponent</tspan>: React.FC = () => {</text>
      <text y="100">  <tspan fill="#c586c0">const</tspan> [<tspan fill="#9cdcfe">todos</tspan>, <tspan fill="#9cdcfe">setTodos</tspan>] = useState&lt;TodoItem[]&gt;([]);</text>
      <text y="125">  <tspan fill="#c586c0">const</tspan> [<tspan fill="#9cdcfe">input</tspan>, <tspan fill="#9cdcfe">setInput</tspan>] = useState(<tspan fill="#ce9178">''</tspan>);</text>
      <text y="150"></text>
      <text y="175">  <tspan fill="#c586c0">useEffect</tspan>(() => {</text>
    </g>
    
    <!-- AI Suggestion Box -->
    <g transform="translate(0, 200)">
      <rect width="500" height="120" fill="#2d2d2d" rx="4" ry="4"/>
      <text x="15" y="30" fill="#9cdcfe" font-size="13">AI Suggestion:</text>
      <text x="15" y="60" fill="#d4d4d4" font-size="13">Add effect to fetch todos from API on component mount:</text>
      <text x="15" y="90" fill="#ce9178" font-size="12" opacity="0.8">fetchTodos().then(data => setTodos(data));</text>
    </g>
  </g>
  
  <!-- Cursor -->
  <rect x="235" y="275" width="2" height="16" fill="#007acc">
    <animate attributeName="opacity" values="1;0;1" dur="1s" repeatCount="indefinite"/>
  </rect>
  
  <!-- Mini Map -->
  <rect x="760" y="70" width="30" height="420" fill="#2d2d2d" opacity="0.6"/>
  <rect x="765" y="75" width="20" height="40" fill="#007acc" opacity="0.3"/>
</svg>